<?xml version="1.0" encoding="UTF-8"?>
<svg id="Layer_2" data-name="Layer 2" xmlns="http://www.w3.org/2000/svg" viewBox="0 0 216 68.64">
  <defs>
    <style>
      .cls-1 {
        fill: #a6633c;
      }

      .cls-2 {
        fill: #8dbf3f;
      }

      .cls-3 {
        fill: #e9f0f9;
      }
    </style>
  </defs>
  <g id="Layer_1-2" data-name="Layer 1">
    <g>
      <g>
        <g>
          <polygon class="cls-3" points="6 51.12 7.09 51.12 7.09 29.01 6 29.93 6 51.12"/>
          <polygon class="cls-3" points="52.57 51.12 53.66 51.12 53.66 29.93 52.57 29.01 52.57 51.12"/>
          <path class="cls-3" d="M58.58,25.8l-8-7.13V.68c0-.38-.31-.68-.68-.68h-5.09c-.38,0-.68.31-.68.68v12.24L31.38,1.58c-1.11-.99-2.79-.99-3.9,0L.29,25.8c-.35.32-.39.86-.07,1.21.32.35.86.39,1.21.07L28.63,2.86c.46-.41,1.15-.41,1.61,0l27.2,24.22c.16.15.37.22.57.22.24,0,.47-.1.64-.29.32-.35.28-.9-.07-1.21Z"/>
          <polygon class="cls-3" points="31.33 34.63 31.33 51.12 32.17 51.12 32.17 36.18 37.48 34.63 31.33 34.63"/>
          <path class="cls-3" d="M12.11,36.59c-1.26,0-1.76.63-1.76,1.58v8.77c0,.96.5,1.58,1.76,1.58s1.81-.63,1.81-1.58v-8.77c0-.93-.53-1.58-1.81-1.58Z"/>
          <path class="cls-3" d="M7.1,29.01v22.12h2.85c-1.87-.63-2.78-2.12-2.78-4.03v-9.07c0-2.54,1.61-4.35,4.95-4.35s5,1.81,5,4.35v9.07c0,1.91-.92,3.4-2.81,4.03h5.42v-17.2h4.67c3.37,0,4.98,1.78,4.98,4.35v3.29c0,2.74-1.46,4.32-4,4.32-.38,0-.93-.05-1.33-.1v-2.79c.23.05.48.08.68.08,1.03,0,1.46-.48,1.46-1.41v-3.39c0-.96-.53-1.56-1.81-1.56h-1.43v14.41h7.69v-17.2h9.28v2.79l-4.8,1.39v4.35l4.15-1.21v2.79l-4.15,1.21v4.57l4.8-1.39v2.7h2.09v-17.2h3.24l2.61,6.69c1.51,3.85,2.01,5.71,2.01,5.71,0,0-.5-1.99-.5-6.81v-5.58h3.17v17.2h.03v-22.12L29.38,8.73,7.1,29.01Z"/>
          <path class="cls-3" d="M44.64,38.7s.5,2.09.5,6.74v5.69h4.2l-2.64-6.72c-1.43-3.67-2.06-5.7-2.06-5.7Z"/>
        </g>
        <g>
          <path class="cls-2" d="M10.04,53.93c2.74,0,4.07,1.45,4.07,3.54v7c0,2.07-1.33,3.52-4.07,3.52h-4.03v-14.07h4.03ZM10.04,65.75c1.04,0,1.47-.51,1.47-1.29v-6.98c0-.78-.43-1.27-1.47-1.27h-1.43v9.54h1.43Z"/>
          <path class="cls-2" d="M24.14,64.66c0,2.07-1.33,3.54-4.07,3.54s-4.03-1.47-4.03-3.54v-7.39c0-2.07,1.31-3.54,4.03-3.54s4.07,1.47,4.07,3.54v7.39ZM21.54,57.39c0-.76-.43-1.29-1.47-1.29s-1.43.51-1.43,1.29v7.15c0,.78.41,1.29,1.43,1.29s1.47-.51,1.47-1.29v-7.15Z"/>
          <path class="cls-2" d="M34.18,64.66c0,2.07-1.33,3.54-4.07,3.54s-4.03-1.47-4.03-3.54v-7.39c0-2.07,1.31-3.54,4.03-3.54s4.07,1.47,4.07,3.54v7.39ZM31.58,57.39c0-.76-.43-1.29-1.47-1.29s-1.43.51-1.43,1.29v7.15c0,.78.41,1.29,1.43,1.29s1.47-.51,1.47-1.29v-7.15Z"/>
          <path class="cls-2" d="M39.97,62.86h-1.06v5.14h-2.6v-14.07h3.81c2.74,0,4.05,1.45,4.05,3.54v1.86c0,1.35-.55,2.44-1.7,3.03l2.05,5.63h-2.87l-1.68-5.14ZM38.91,56.21v4.38h1.21c1.04,0,1.45-.49,1.45-1.27v-1.84c0-.78-.41-1.27-1.45-1.27h-1.21Z"/>
          <path class="cls-2" d="M47.63,61.14c-1.19-.78-1.95-1.9-1.95-3.4v-.49c0-2.09,1.21-3.52,3.95-3.52s3.95,1.43,3.95,3.52v1h-2.62v-.92c0-.78-.33-1.25-1.33-1.25s-1.33.47-1.33,1.25v.31c0,.74.33,1.17,1.15,1.7l2.38,1.54c1.27.84,1.84,1.8,1.84,3.32v.51c0,2.07-1.31,3.5-4.05,3.5s-4.01-1.43-4.01-3.5v-1.04h2.62v.94c0,.78.37,1.27,1.39,1.27s1.43-.49,1.43-1.27v-.29c0-.74-.25-1.13-1.06-1.64l-2.35-1.54Z"/>
        </g>
      </g>
      <g>
        <path class="cls-1" d="M62.03,68.14v-34.22h15.4v4.77h-9.93v10.79h8.98v4.77h-8.98v13.9h-5.47Z"/>
        <path class="cls-1" d="M97.35,68.14h-16v-34.22h16v4.77h-10.59v9.78h9.18v4.77h-9.18v10.18h10.59v4.72Z"/>
        <path class="cls-1" d="M105.28,51.23c-2.86-1.86-4.82-4.57-4.82-8.13v-1.3c0-4.87,2.81-8.38,9.23-8.38s9.28,3.51,9.28,8.38v2.31h-5.47v-2.11c0-2.26-.95-3.66-3.81-3.66s-3.76,1.4-3.76,3.66v.75c0,2.16.95,3.36,3.06,4.67l5.57,3.66c3.01,1.96,4.62,4.26,4.62,7.88v1.35c-.05,4.92-3.11,8.33-9.48,8.33s-9.43-3.46-9.43-8.38v-2.46h5.47v2.31c0,2.21,1.05,3.66,3.96,3.66s4.01-1.46,4.01-3.66v-.7c0-2.11-.8-3.16-2.86-4.52l-5.57-3.66Z"/>
        <path class="cls-1" d="M127.25,38.69h-6.32v-4.77h18.11v4.77h-6.32v29.45h-5.47v-29.45Z"/>
        <path class="cls-1" d="M142.45,68.14v-34.22h5.47v34.22h-5.47Z"/>
        <path class="cls-1" d="M159.36,68.14l-7.78-34.22h5.47l3.46,16c1.56,7.43,1.91,9.73,2.16,12.14.25-2.41.55-4.77,2.16-12.14l3.41-16h5.47l-7.78,34.22h-6.57Z"/>
        <path class="cls-1" d="M189.61,33.93l7.48,34.22h-5.42l-1.86-8.78h-7.58l-1.86,8.78h-5.42l7.48-34.22h7.17ZM183.19,54.75h5.67l-.55-2.61c-1.66-7.83-2.06-10.59-2.26-13.04-.25,2.41-.7,5.32-2.31,13.04l-.55,2.61Z"/>
        <path class="cls-1" d="M216,68.14h-15.05v-34.22h5.47v29.5h9.58v4.72Z"/>
      </g>
    </g>
  </g>
</svg>