<svg width="40" height="47" viewBox="0 0 40 47" fill="none" xmlns="http://www.w3.org/2000/svg">
<g clip-path="url(#clip0_36_255)">
<path d="M4.0741 34.737H4.81669V19.7093L4.0741 20.3352V34.737Z" fill="#3B6BB4"/>
<path d="M35.7186 34.737H36.4594V20.3352L35.7186 19.7093V34.737Z" fill="#3B6BB4"/>
<path d="M39.8039 17.5296L34.3651 12.6852V0.464815C34.3651 0.209259 34.1576 0 33.9002 0H30.4391C30.1836 0 29.9743 0.207407 29.9743 0.464815V8.77778L21.3243 1.07222C20.5688 0.4 19.4299 0.4 18.6743 1.07222L0.196536 17.5296C-0.044205 17.7444 -0.0664272 18.113 0.148388 18.3537C0.363202 18.5944 0.731721 18.6167 0.972462 18.4019L19.4521 1.94444C19.7651 1.66667 20.2354 1.66667 20.5484 1.94444L39.028 18.4019C39.1391 18.5019 39.278 18.55 39.4169 18.55C39.578 18.55 39.7373 18.4833 39.8539 18.3537C40.0688 18.113 40.0465 17.7444 39.8058 17.5296H39.8039Z" fill="#3B6BB4"/>
<path d="M21.2871 23.5315V34.737H21.8575V24.5796L25.4686 23.5315H21.2871Z" fill="#3B6BB4"/>
<path d="M8.23155 24.863C7.37785 24.863 7.03711 25.2908 7.03711 25.9389V31.8982C7.03711 32.5463 7.37785 32.9741 8.23155 32.9741C9.08526 32.9741 9.46118 32.5463 9.46118 31.8982V25.9389C9.46118 25.3074 9.10192 24.863 8.23155 24.863Z" fill="#3B6BB4"/>
<path d="M4.82043 19.7093V34.7371H6.75377C5.4834 34.3111 4.86673 33.2963 4.86673 32V25.8352C4.86673 24.1111 5.95932 22.8815 8.23155 22.8815C10.5038 22.8815 11.6297 24.1111 11.6297 25.8352V32C11.6297 33.2963 11.0038 34.3111 9.72043 34.7371H13.4056V23.0519H16.5815C18.8704 23.0519 19.963 24.2648 19.963 26.0056V28.2426C19.963 30.1037 18.9723 31.1796 17.2482 31.1796C16.9927 31.1796 16.6167 31.1463 16.3427 31.1111V29.2148C16.4964 29.2482 16.6667 29.2667 16.8038 29.2667C17.5038 29.2667 17.7945 28.9426 17.7945 28.3111V26.0056C17.7945 25.3574 17.4352 24.9463 16.5649 24.9463H15.5908V34.7352H20.8149V23.05H27.1186V24.9463L23.8575 25.8926V28.8463L26.6778 28.0278V29.9241L23.8575 30.7426V33.85L27.1186 32.9037V34.7352H28.5371V23.05H30.7408L32.5167 27.5926C33.5408 30.2056 33.8834 31.4685 33.8834 31.4685C33.8834 31.4685 33.5427 30.1204 33.5427 26.8408V23.05H35.6945V34.7352H35.7149V19.7074L19.9649 5.93335L4.82043 19.7093Z" fill="#3B6BB4"/>
<path d="M30.3297 26.2963C30.3297 26.2963 30.6705 27.713 30.6705 30.8722V34.737H33.5205L31.7279 30.1722C30.7538 27.6796 30.3279 26.2963 30.3279 26.2963H30.3297Z" fill="#3B6BB4"/>
<path d="M6.82033 36.6444C8.68515 36.6444 9.58885 37.6315 9.58885 39.0518V43.8093C9.58885 45.2148 8.68515 46.2018 6.82033 46.2018H4.07959V36.6444H6.82033ZM6.82033 44.6722C7.52959 44.6722 7.82218 44.3241 7.82218 43.7963V39.0518C7.82218 38.5241 7.52959 38.1889 6.82033 38.1889H5.84626V44.6722H6.82033Z" fill="#8DBF3F"/>
<path d="M16.4055 43.9352C16.4055 45.3407 15.5018 46.3426 13.637 46.3426C11.7722 46.3426 10.8962 45.3407 10.8962 43.9352V38.913C10.8962 37.5074 11.787 36.5056 13.637 36.5056C15.487 36.5056 16.4055 37.5074 16.4055 38.913V43.9352ZM14.6388 38.9963C14.6388 38.4815 14.3462 38.1204 13.637 38.1204C12.9277 38.1204 12.6629 38.4685 12.6629 38.9963V43.8518C12.6629 44.3796 12.9407 44.7278 13.637 44.7278C14.3333 44.7278 14.6388 44.3796 14.6388 43.8518V38.9963Z" fill="#8DBF3F"/>
<path d="M23.2222 43.9352C23.2222 45.3407 22.3184 46.3426 20.4536 46.3426C18.5888 46.3426 17.7129 45.3407 17.7129 43.9352V38.913C17.7129 37.5074 18.6036 36.5056 20.4536 36.5056C22.3036 36.5056 23.2222 37.5074 23.2222 38.913V43.9352ZM21.4536 38.9963C21.4536 38.4815 21.161 38.1204 20.4518 38.1204C19.7425 38.1204 19.4777 38.4685 19.4777 38.9963V43.8518C19.4777 44.3796 19.7555 44.7278 20.4518 44.7278C21.1481 44.7278 21.4536 44.3796 21.4536 43.8518V38.9963Z" fill="#8DBF3F"/>
<path d="M27.1574 42.7111H26.4333V46.2037H24.6666V36.6463H27.2537C29.1185 36.6463 30.0092 37.6333 30.0092 39.0537V40.3204C30.0092 41.2389 29.6333 41.9759 28.8537 42.3796L30.2444 46.2056H28.2963L27.1555 42.713L27.1574 42.7111ZM26.4351 38.1889V41.1667H27.2555C27.9648 41.1667 28.2426 40.8333 28.2426 40.3037V39.0519C28.2426 38.5241 27.9648 38.1889 27.2555 38.1889H26.4351Z" fill="#8DBF3F"/>
<path d="M32.3611 41.5426C31.5537 41.013 31.0389 40.2482 31.0389 39.2333V38.9C31.0389 37.4815 31.8592 36.5074 33.724 36.5074C35.5889 36.5074 36.4092 37.4815 36.4092 38.9V39.5815H34.6277V38.9556C34.6277 38.4278 34.4055 38.1074 33.724 38.1074C33.0426 38.1074 32.8203 38.4278 32.8203 38.9556V39.1648C32.8203 39.6648 33.0426 39.9574 33.6 40.3204L35.2129 41.363C36.0759 41.9333 36.4648 42.587 36.4648 43.6167V43.9648C36.4648 45.3704 35.574 46.3445 33.7092 46.3445C31.8444 46.3445 30.9814 45.3704 30.9814 43.9648V43.2556H32.7629V43.8963C32.7629 44.4241 33.0129 44.7593 33.7092 44.7593C34.4055 44.7593 34.6833 44.4259 34.6833 43.8963V43.7019C34.6833 43.2019 34.5166 42.937 33.9592 42.5889L32.3592 41.5463L32.3611 41.5426Z" fill="#8DBF3F"/>
</g>
<defs>
<clipPath id="clip0_36_255">
<rect width="40" height="46.3426" fill="white"/>
</clipPath>
</defs>
</svg>
